<svg xmlns="http://www.w3.org/2000/svg" width="42" height="42" version="1.1" viewBox="0 0 42 42"><g fill="none" fill-rule="evenodd" stroke="none" stroke-width="1"><g fill="#FFF"><g><path d="M21 36.6L21 36.6C29.6 36.6 36.6 29.6 36.6 21 36.6 12.4 29.6 5.4 21 5.4 12.4 5.4 5.4 12.4 5.4 21 5.4 29.6 12.4 36.6 21 36.6L21 36.6ZM21 42L21 42C9.4 42 0 32.6 0 21 0 9.4 9.4 0 21 0 32.6 0 42 9.4 42 21 42 32.6 32.6 42 21 42L21 42Z" transform="translate(-200.000000, -60.000000) translate(200.000000, 60.000000)"/></g></g></g></svg>